<?xml version="1.0" encoding="UTF-8" standalone="no"?>
<svg width="512px" height="512px" viewBox="0 0 512 512" version="1.1" xmlns="http://www.w3.org/2000/svg" xmlns:xlink="http://www.w3.org/1999/xlink">
    <!-- Generator: Sketch 41.2 (35397) - http://www.bohemiancoding.com/sketch -->
    <title>icon-17</title>
    <desc>Created with Sketch.</desc>
    <defs></defs>
    <g id="FontIcons" stroke="none" stroke-width="1" fill="none" fill-rule="evenodd">
        <g id="icon-17" fill="#CCCCCC">
            <g id="dinero" transform="translate(7.000000, 7.000000)">
                <g id="Group">
                    <path d="M282.022222,272.066667 C276.333333,267.8 267.8,263.533333 256.422222,260.688889 L256.422222,311.888889 C279.177778,311.888889 290.555556,303.355556 290.555556,287.711111 C291.977778,282.022222 289.133333,276.333333 282.022222,272.066667 Z" id="Shape"></path>
                    <path d="M213.755556,183.888889 C213.755556,191 216.6,196.688889 220.866667,200.955556 C226.555556,205.222222 233.666667,208.066667 243.622222,210.911111 L243.622222,158.288889 C223.711111,161.133333 213.755556,168.244444 213.755556,183.888889 Z" id="Shape"></path>
                    <path d="M249.311111,0.422222222 C111.355556,0.422222222 0.422222222,112.777778 0.422222222,249.311111 C0.422222222,385.844444 112.777778,498.2 249.311111,498.2 C387.266667,498.2 498.2,385.844444 498.2,249.311111 C498.2,112.777778 387.266667,0.422222222 249.311111,0.422222222 Z M333.222222,314.733333 C328.955556,323.266667 323.266667,330.377778 316.155556,334.644444 C309.044444,340.333333 300.511111,344.6 290.555556,346.022222 C280.6,348.866667 270.644444,350.288889 260.688889,350.288889 L260.688889,385.844444 L240.777778,385.844444 L240.777778,350.288889 C225.133333,348.866667 210.911111,346.022222 196.688889,341.755556 C182.466667,336.066667 169.666667,330.377778 158.288889,321.844444 L178.2,283.444444 C179.622222,284.866667 182.466667,287.711111 186.733333,290.555556 C191,293.4 195.266667,296.244444 202.377778,299.088889 C208.066667,301.933333 215.177778,304.777778 222.288889,306.2 C229.4,309.044444 236.511111,310.466667 245.044444,310.466667 L245.044444,255 C243.622222,255 240.777778,253.577778 239.355556,253.577778 C237.933333,253.577778 235.088889,252.155556 233.666667,252.155556 C222.288889,249.311111 213.755556,246.466667 205.222222,242.2 C196.688889,239.355556 191,235.088889 185.311111,229.4 C179.622222,225.133333 175.355556,219.444444 173.933333,212.333333 C171.088889,206.644444 169.666667,198.111111 169.666667,189.577778 C169.666667,178.2 171.088889,169.666667 175.355556,161.133333 C179.622222,152.6 183.888889,145.488889 191,139.8 C198.111111,134.111111 205.222222,128.422222 213.755556,125.577778 C222.288889,122.733333 232.244444,119.888889 242.2,118.466667 L242.2,85.7555556 L262.111111,85.7555556 L262.111111,118.466667 C276.333333,119.888889 289.133333,122.733333 300.511111,127 C311.888889,131.266667 323.266667,136.955556 331.8,144.066667 L311.888889,179.622222 C310.466667,178.2 307.622222,176.777778 304.777778,173.933333 C301.933333,171.088889 297.666667,169.666667 291.977778,166.822222 C286.288889,163.977778 282.022222,162.555556 276.333333,161.133333 C270.644444,159.711111 264.955556,158.288889 257.844444,156.866667 L257.844444,212.333333 L266.377778,213.755556 C277.755556,216.6 287.711111,219.444444 296.244444,223.711111 C304.777778,227.977778 313.311111,230.822222 319,236.511111 C324.688889,242.2 330.377778,247.888889 333.222222,255 C336.066667,262.111111 338.911111,270.644444 338.911111,282.022222 C338.911111,296.244444 336.066667,306.2 333.222222,314.733333 Z" id="Shape"></path>
                </g>
            </g>
        </g>
    </g>
</svg>