<?xml version="1.0" encoding="UTF-8" standalone="no"?>
<svg width="512px" height="512px" viewBox="0 0 512 512" version="1.1" xmlns="http://www.w3.org/2000/svg" xmlns:xlink="http://www.w3.org/1999/xlink">
    <!-- Generator: Sketch 41.2 (35397) - http://www.bohemiancoding.com/sketch -->
    <title>icon-13</title>
    <desc>Created with Sketch.</desc>
    <defs></defs>
    <g id="FontIcons" stroke="none" stroke-width="1" fill="none" fill-rule="evenodd">
        <g id="icon-13" fill="#CCCCCC">
            <g id="buscar" transform="translate(16.000000, 4.000000)">
                <path d="M472.436617,460.056882 L354.392172,334.901326 C384.258839,297.923549 401.325506,252.412437 401.325506,204.056882 C401.325506,91.7013264 311.725506,0.679104153 200.792172,0.679104153 C89.8588389,0.679104153 0.258838878,91.7013264 0.258838878,204.056882 C0.258838878,316.412437 89.8588389,407.43466 200.792172,407.43466 C242.036617,407.43466 281.858839,394.63466 315.992172,370.456882 L435.458839,495.612437 C439.725506,501.301326 446.836617,504.145771 453.947728,504.145771 C461.058839,504.145771 466.747728,501.301326 472.436617,497.03466 C482.392172,488.501326 482.392172,471.43466 472.436617,460.056882 M202.214394,54.7235486 C283.281061,54.7235486 350.125506,121.567993 350.125506,205.479104 C350.125506,287.967993 283.281061,356.23466 202.214394,356.23466 C121.147728,356.23466 54.3032833,289.390215 54.3032833,205.479104 C54.3032833,121.567993 119.725506,54.7235486 202.214394,54.7235486" id="Shape"></path>
            </g>
        </g>
    </g>
</svg>