<?xml version="1.0" encoding="UTF-8" standalone="no"?>
<svg width="512px" height="512px" viewBox="0 0 512 512" version="1.1" xmlns="http://www.w3.org/2000/svg" xmlns:xlink="http://www.w3.org/1999/xlink">
    <!-- Generator: Sketch 41.2 (35397) - http://www.bohemiancoding.com/sketch -->
    <title>icon-09</title>
    <desc>Created with Sketch.</desc>
    <defs></defs>
    <g id="FontIcons" stroke="none" stroke-width="1" fill="none" fill-rule="evenodd">
        <g id="icon-09" fill="#CCCCCC">
            <g id="efectivo" transform="translate(8.000000, 5.000000)">
                <g id="banknote">
                    <path d="M487.729021,166.029787 L332.04766,10.2510638 C324.426894,2.62553191 313.540085,-0.642553191 302.653277,1.53617021 C297.209872,2.62553191 291.766468,5.89361702 288.500426,10.2510638 C285.234383,13.5191489 281.96834,17.8765957 280.87966,23.3234043 C274.347574,46.2 261.283404,65.8085106 243.864511,84.3276596 C219.913532,108.293617 188.341787,126.812766 155.681362,146.421277 C120.843574,167.119149 83.8284255,187.817021 54.4340426,218.319149 C29.394383,243.374468 11.9754894,271.697872 2.1773617,304.378723 C-1.08868085,315.27234 2.1773617,327.255319 9.79812766,335.970213 L165.479489,491.748936 C173.100255,499.374468 183.987064,502.642553 194.873872,500.46383 C200.317277,499.374468 205.760681,496.106383 209.026723,491.748936 C212.292766,488.480851 215.558809,484.123404 216.647489,478.676596 C223.179574,455.8 236.243745,436.191489 253.662638,417.67234 C277.613617,393.706383 309.185362,375.187234 341.845787,356.668085 C376.683574,335.970213 413.698723,315.27234 443.093106,284.770213 C468.132766,259.714894 485.55166,231.391489 495.349787,198.710638 C498.61583,186.72766 496.438468,174.744681 487.729021,166.029787 Z M186.164426,467.782979 C134.996426,416.582979 81.6510638,363.204255 30.4830638,312.004255 C75.1189787,169.297872 266.726809,175.834043 310.274043,32.0382979 C361.442043,83.2382979 414.787404,136.617021 465.955404,187.817021 C421.319489,331.612766 229.71166,325.076596 186.164426,467.782979 Z" id="Shape"></path>
                    <path d="M303.741957,233.570213 C298.298553,229.212766 293.94383,225.944681 288.500426,224.855319 C283.057021,223.765957 278.702298,222.676596 273.258894,223.765957 C267.815489,223.765957 263.460766,224.855319 258.017362,227.034043 C252.573957,229.212766 247.130553,231.391489 242.77583,233.570213 C234.066383,223.765957 226.445617,213.961702 217.73617,205.246809 C221.002213,201.978723 225.356936,199.8 228.622979,199.8 C231.889021,199.8 235.155064,199.8 238.421106,200.889362 C241.687149,201.978723 244.953191,201.978723 247.130553,203.068085 C250.396596,203.068085 252.573957,203.068085 254.751319,200.889362 C256.928681,198.710638 258.017362,196.531915 258.017362,193.26383 C258.017362,189.995745 256.928681,186.72766 254.751319,184.548936 C251.485277,181.280851 247.130553,178.012766 242.77583,178.012766 C238.421106,176.923404 232.977702,176.923404 228.622979,178.012766 C223.179574,179.102128 218.824851,181.280851 214.470128,183.459574 C210.115404,185.638298 206.849362,188.906383 203.583319,191.085106 C202.494638,189.995745 201.405957,188.906383 200.317277,187.817021 C199.228596,186.72766 198.139915,186.72766 195.962553,186.72766 C193.785191,186.72766 192.696511,187.817021 191.60783,188.906383 C190.519149,189.995745 190.519149,192.174468 190.519149,193.26383 C190.519149,195.442553 191.60783,196.531915 192.696511,197.621277 C193.785191,198.710638 194.873872,199.8 195.962553,199.8 C191.60783,204.157447 188.341787,209.604255 186.164426,215.051064 C183.987064,220.497872 181.809702,225.944681 181.809702,231.391489 C180.721021,236.838298 181.809702,242.285106 182.898383,246.642553 C185.075745,251 187.253106,255.357447 191.60783,258.625532 C199.228596,265.161702 207.938043,267.340426 217.73617,266.251064 C227.534298,265.161702 238.421106,262.982979 250.396596,256.446809 C259.106043,267.340426 268.90417,277.144681 277.613617,286.948936 C273.258894,290.217021 269.992851,292.395745 267.815489,292.395745 C264.549447,293.485106 262.372085,293.485106 260.194723,292.395745 C258.017362,291.306383 255.84,290.217021 253.662638,289.12766 C251.485277,288.038298 249.307915,286.948936 247.130553,285.859574 C244.953191,284.770213 242.77583,284.770213 240.598468,284.770213 C238.421106,284.770213 236.243745,285.859574 234.066383,288.038298 C231.889021,290.217021 229.71166,292.395745 229.71166,295.66383 C229.71166,298.931915 230.80034,301.110638 234.066383,304.378723 C236.243745,307.646809 240.598468,309.825532 243.864511,312.004255 C248.219234,314.182979 252.573957,315.27234 258.017362,315.27234 C263.460766,315.27234 268.90417,315.27234 274.347574,313.093617 C279.790979,310.914894 286.323064,307.646809 291.766468,301.110638 C293.94383,303.289362 297.209872,306.557447 299.387234,308.73617 C300.475915,309.825532 301.564596,309.825532 303.741957,309.825532 C304.830638,309.825532 307.008,308.73617 308.096681,307.646809 C309.185362,306.557447 309.185362,304.378723 309.185362,303.289362 C309.185362,302.2 308.096681,300.021277 307.008,300.021277 C303.741957,297.842553 301.564596,295.66383 298.298553,293.485106 C302.653277,288.038298 307.008,281.502128 309.185362,276.055319 C312.451404,270.608511 313.540085,264.07234 314.628766,258.625532 C314.628766,253.178723 314.628766,248.821277 312.451404,244.46383 C311.362723,241.195745 308.096681,236.838298 303.741957,233.570213 Z M216.647489,243.374468 C212.292766,243.374468 207.938043,242.285106 204.672,239.017021 C203.583319,237.92766 202.494638,235.748936 201.405957,233.570213 C200.317277,231.391489 200.317277,229.212766 200.317277,227.034043 C200.317277,224.855319 201.405957,222.676596 202.494638,219.408511 C203.583319,217.229787 205.760681,213.961702 207.938043,211.782979 C215.558809,219.408511 223.179574,228.123404 231.889021,236.838298 C226.445617,242.285106 221.002213,243.374468 216.647489,243.374468 Z M289.589106,274.965957 C288.500426,277.144681 286.323064,279.323404 285.234383,281.502128 C276.524936,272.787234 267.815489,262.982979 259.106043,253.178723 C261.283404,252.089362 263.460766,251 265.638128,249.910638 C267.815489,248.821277 271.081532,247.731915 273.258894,247.731915 L280.87966,247.731915 C283.057021,248.821277 286.323064,249.910638 288.500426,252.089362 C290.677787,254.268085 291.766468,256.446809 292.855149,258.625532 C293.94383,260.804255 293.94383,264.07234 292.855149,266.251064 C292.855149,269.519149 291.766468,272.787234 289.589106,274.965957 Z" id="Shape"></path>
                    <path d="M228.622979,346.86383 L228.622979,346.86383 C218.824851,354.489362 209.026723,362.114894 200.317277,370.829787 C191.60783,379.544681 183.987064,388.259574 177.454979,396.974468 L166.56817,411.13617 L166.56817,411.13617 C164.390809,414.404255 165.479489,418.761702 167.656851,420.940426 C170.922894,424.208511 175.277617,424.208511 178.54366,420.940426 L179.63234,419.851064 L189.430468,406.778723 C195.962553,398.06383 202.494638,390.438298 210.115404,381.723404 C218.824851,373.008511 226.445617,366.47234 236.243745,358.846809 L236.243745,358.846809 C236.243745,358.846809 236.243745,358.846809 237.332426,357.757447 C240.598468,354.489362 240.598468,350.131915 237.332426,346.86383 C236.243745,344.685106 231.889021,343.595745 228.622979,346.86383 Z" id="Shape"></path>
                    <path d="M285.234383,121.365957 C277.613617,128.991489 267.815489,136.617021 259.106043,144.242553 C258.017362,144.242553 258.017362,145.331915 256.928681,145.331915 C253.662638,148.6 253.662638,152.957447 256.928681,156.225532 C260.194723,159.493617 264.549447,159.493617 267.815489,156.225532 L267.815489,156.225532 C277.613617,148.6 287.411745,140.974468 296.121191,132.259574 C304.830638,123.544681 312.451404,114.829787 318.983489,106.114894 L329.870298,91.9531915 L329.870298,91.9531915 C332.04766,88.6851064 332.04766,84.3276596 329.870298,81.0595745 C326.604255,77.7914894 322.249532,77.7914894 318.983489,81.0595745 C317.894809,82.1489362 317.894809,82.1489362 317.894809,83.2382979 L308.096681,97.4 C300.475915,105.025532 292.855149,113.740426 285.234383,121.365957 Z" id="Shape"></path>
                </g>
            </g>
        </g>
    </g>
</svg>