<?xml version="1.0" encoding="UTF-8" standalone="no"?>
<svg width="512px" height="512px" viewBox="0 0 512 512" version="1.1" xmlns="http://www.w3.org/2000/svg" xmlns:xlink="http://www.w3.org/1999/xlink">
    <!-- Generator: Sketch 41.2 (35397) - http://www.bohemiancoding.com/sketch -->
    <title>icon-20</title>
    <desc>Created with Sketch.</desc>
    <defs></defs>
    <g id="FontIcons" stroke="none" stroke-width="1" fill="none" fill-rule="evenodd">
        <g id="icon-20" fill="#CCCCCC">
            <path d="M259.436621,310.90243 C226.250518,312.992002 198.827271,285.628554 201.013182,252.394402 C202.702295,224.93145 224.958843,202.74218 252.38209,200.951118 C285.568193,198.861546 312.991439,226.224994 310.805528,259.459147 C309.017056,287.021602 286.760508,309.210871 259.436621,310.90243 M262.516768,358.067065 C200.913823,361.947699 150.041713,311.101437 153.916737,249.309795 C157.096244,198.364029 198.330473,157.070097 249.202583,153.885987 C310.805528,150.005352 361.677638,200.851615 357.802614,262.643257 C354.523747,313.48952 313.289518,354.783451 262.516768,358.067065 M255.859675,111 C163.057819,111 78.9002474,161.846263 16.8005043,244.434126 C11.7331652,251.20036 11.7331652,260.653188 16.8005043,267.419423 C78.9002474,350.106789 163.057819,400.953052 255.859675,400.953052 C348.661532,400.953052 432.819104,350.106789 494.918847,267.518926 C499.986186,260.752691 499.986186,251.299864 494.918847,244.533629 C432.819104,161.846263 348.661532,111 255.859675,111" id="Page-1"></path>
        </g>
    </g>
</svg>