<?xml version="1.0" encoding="UTF-8" standalone="no"?>
<svg width="512px" height="512px" viewBox="0 0 512 512" version="1.1" xmlns="http://www.w3.org/2000/svg" xmlns:xlink="http://www.w3.org/1999/xlink">
    <!-- Generator: Sketch 41.2 (35397) - http://www.bohemiancoding.com/sketch -->
    <title>icon-19</title>
    <desc>Created with Sketch.</desc>
    <defs></defs>
    <g id="FontIcons" stroke="none" stroke-width="1" fill="none" fill-rule="evenodd">
        <g id="icon-19" fill="#CCCCCC">
            <path d="M498.468401,105.185874 L452.371747,151.282528 L358.334572,57.2453532 L323.301115,92.2788104 L417.33829,186.315985 L186.855019,418.643123 L92.8178439,324.605948 L57.7843866,359.639405 L151.821561,453.67658 L129.695167,475.802974 L129.695167,475.802974 C127.851301,479.490706 122.319703,483.178439 118.63197,485.022305 L30.1263941,505.304833 L26.4386617,505.304833 C20.9070632,505.304833 17.2193309,503.460967 13.5315985,499.773234 C9.84386617,496.085502 8,488.710037 8,483.178439 L28.2825279,394.672862 C30.1263941,389.141264 31.9702602,385.453532 37.5018587,383.609665 L37.5018587,383.609665 L409.962825,11.1486989 C415.494424,5.61710037 424.713755,5.61710037 430.245353,11.1486989 L504,84.9033457 C504,90.4349442 504,99.6542751 498.468401,105.185874" id="Shape"></path>
        </g>
    </g>
</svg>