<?xml version="1.0" encoding="UTF-8" standalone="no"?>
<svg width="512px" height="512px" viewBox="0 0 512 512" version="1.1" xmlns="http://www.w3.org/2000/svg" xmlns:xlink="http://www.w3.org/1999/xlink">
    <!-- Generator: Sketch 41.2 (35397) - http://www.bohemiancoding.com/sketch -->
    <title>icon-10</title>
    <desc>Created with Sketch.</desc>
    <defs></defs>
    <g id="FontIcons" stroke="none" stroke-width="1" fill="none" fill-rule="evenodd">
        <g id="icon-10" fill="#CCCCCC">
            <g id="electronico" transform="translate(8.781155, 71.224924)">
                <g id="Group">
                    <path d="M382.624865,1.84918497 L26.8843468,116.182958 C6.76534576,122.534834 -5.12315483,145.220107 2.19284553,165.183147 L64.3788486,355.739435 C70.780349,375.702475 93.6428501,387.498817 113.761851,380.239529 L469.502369,265.905756 C489.62137,259.55388 501.509871,236.868608 494.19387,216.905568 L432.007867,26.3492792 C425.606367,6.38623946 403.658366,-4.50269132 382.624865,1.84918497 Z M449.383368,186.961008 C445.725368,186.961008 442.981868,187.868419 439.323867,188.77583 C418.290366,195.127706 407.316366,217.812979 413.717866,238.683429 C414.632366,242.313073 416.461366,245.035306 418.290366,247.757538 L141.196852,336.683806 C141.196852,333.961574 140.282352,332.146752 139.367852,329.424519 C132.966352,308.554069 110.103851,297.665138 89.0703499,304.017014 C86.3268497,304.924425 84.4978497,305.831836 82.6688496,306.739247 L46.0888477,193.312884 C48.8323479,193.312884 50.661348,192.405474 52.4903481,191.498063 C73.5238491,185.146186 84.4978497,162.460914 78.0963493,141.590463 C77.1818493,138.868231 76.2673492,137.053409 75.3528492,135.238587 L351.531863,46.312319 C351.531863,48.1271408 352.446363,49.9419626 352.446363,50.8493735 C358.847863,71.7198241 381.710365,82.6087549 402.743866,76.2568786 C406.401866,75.3494677 409.145366,73.5346459 411.888866,71.7198241 L449.383368,186.961008 L449.383368,186.961008 Z" id="Shape"></path>
                    <path d="M213.442356,168.81279 C221.672857,147.94234 234.475857,135.238587 250.936858,129.794122 C258.252858,127.071889 264.654359,127.071889 270.141359,128.886711 C275.628359,130.701533 280.200859,135.238587 282.02986,141.590463 C284.77336,151.571983 282.94436,162.460914 274.713859,174.257256 C266.483359,186.053597 254.594858,196.942528 237.219357,204.201815 C237.219357,206.924048 238.133857,208.73887 238.133857,211.461102 C238.133857,213.275924 239.048357,215.090746 239.048357,216.905568 C240.877357,221.442622 242.706358,225.072266 244.535358,226.887088 C248.193358,231.424142 253.680358,232.331553 260.996358,229.60932 C266.483359,227.794499 271.055859,223.257444 274.713859,215.998157 C276.542859,212.368513 278.371859,206.924048 280.200859,200.572172 L288.43136,202.386993 C285.68786,214.183335 282.94436,222.350033 279.286359,228.70191 C273.799359,238.683429 265.568859,245.035306 254.594858,248.664949 C246.364358,251.387182 238.133857,250.479771 228.988857,246.850127 C219.843856,243.220484 213.442356,235.961197 209.784356,223.257444 C203.382856,207.831459 205.211856,188.77583 213.442356,168.81279 Z M250.022358,138.868231 C244.535358,140.683052 240.877357,147.034929 238.133857,157.016449 C235.390357,166.997968 235.390357,180.609132 236.304857,197.849939 C248.193358,190.590652 256.423858,181.516543 259.167358,171.535023 C261.910859,161.553503 261.910859,152.479394 260.081858,146.127518 C259.167358,143.405285 258.252858,141.590463 256.423858,139.775641 C254.594858,137.96082 252.765858,137.96082 250.022358,138.868231 Z" id="Shape"></path>
                </g>
            </g>
        </g>
    </g>
</svg>