<?xml version="1.0" encoding="UTF-8" standalone="no"?>
<svg width="512px" height="512px" viewBox="0 0 512 512" version="1.1" xmlns="http://www.w3.org/2000/svg" xmlns:xlink="http://www.w3.org/1999/xlink">
    <!-- Generator: Sketch 41.2 (35397) - http://www.bohemiancoding.com/sketch -->
    <title>icon-04</title>
    <desc>Created with Sketch.</desc>
    <defs></defs>
    <g id="FontIcons" stroke="none" stroke-width="1" fill="none" fill-rule="evenodd">
        <g id="icon-04" fill="#CCCCCC">
            <g id="Page-1" transform="translate(7.000000, 152.000000)">
                <path d="M71.6587506,199.782852 C68.8814196,199.790473 67.0685272,197.482575 67.7039221,194.629774 C68.3620096,191.703303 71.2086792,189.381433 73.9860102,189.375082 C76.7633412,189.364921 78.501852,191.67536 77.8462859,194.603101 C77.2083697,197.455902 74.438603,199.772691 71.6587506,199.782852" id="Fill-1"></path>
                <path d="M103.22085,193.54081 C99.6788925,196.709539 95.3046653,198.710782 90.8437879,198.724358 C82.1145891,198.749246 76.5647014,191.011256 78.5790497,181.535613 C80.5677237,172.200249 89.4210141,164.418139 98.1502129,164.390988 C102.547975,164.379675 106.089933,166.289284 108.315023,169.303028 L103.130991,173.914145 C101.756356,171.99888 99.5184293,170.839313 96.7798571,170.844969 C91.2321089,170.86307 85.8287776,175.613336 84.5707461,181.519775 C83.2816916,187.560837 86.6877907,192.217206 92.2333994,192.199105 C95.0992724,192.191186 97.7715198,191.019175 99.9805633,189.023588 L103.22085,193.54081 Z" id="Fill-3"></path>
                <path d="M135.263429,181.440245 C136.519321,175.534938 133.082199,170.741683 127.601845,170.759783 C122.119352,170.77449 116.636859,175.596027 115.376688,181.500204 C114.122935,187.403249 117.560057,192.197635 123.040411,192.181797 C128.520764,192.16709 134.003258,187.344422 135.263429,181.440245 M141.254055,181.422145 C139.235428,190.897788 130.462369,198.609758 121.665776,198.635778 C112.873462,198.662929 107.372783,190.992816 109.39034,181.51491 C111.404688,172.040398 120.179887,164.329559 128.97434,164.304671 C137.768794,164.278651 143.269473,171.947633 141.254055,181.422145" id="Fill-5"></path>
                <path d="M177.91776,181.085588 L177.847156,181.429498 L177.83004,181.499638 L174.190735,198.596749 L168.197968,198.613718 L171.85439,181.44873 L171.939971,181.035811 C172.899541,175.337528 169.547999,170.750167 164.192807,170.763743 C158.837614,170.781843 153.462097,175.394093 152.059648,181.093507 L148.317646,198.673676 L142.32595,198.687251 L149.088939,166.892485 L155.076357,166.874385 L154.821755,168.116536 C157.993578,165.774776 161.804044,164.323337 165.565302,164.312024 C170.8531,164.296186 175.019794,167.166256 176.968888,171.484371 C180.822144,167.147025 186.135616,164.318812 191.423414,164.302974 C200.220007,164.279217 205.718547,171.948198 203.704199,181.42271 L200.047777,198.589961 L194.05608,198.60693 L197.712502,181.43968 C198.968394,175.535503 195.533412,170.741117 190.050919,170.756955 C184.695726,170.772793 179.323418,175.388436 177.91776,181.085588" id="Fill-7"></path>
                <path d="M241.045807,207.659812 C237.719939,207.659812 234.614441,207.304589 232.303771,206.656363 L215.51611,201.975105 L214.508401,201.694546 L214.738398,200.617563 L221.086323,171.183789 L221.312041,170.129431 L222.32082,170.3127 L234.936438,172.59337 C237.41399,173.037965 240.765531,173.285717 244.375954,173.285717 C247.988515,173.285717 251.387126,173.037965 253.94491,172.591108 L456.801435,137.143422 C461.667749,136.297221 466.140394,130.912304 466.569365,125.392765 L470.108114,79.7623827 C470.532807,74.2439743 467.03043,69.1045464 462.294625,68.3002027 L264.789014,35.0313724 C262.244067,34.6026154 258.800527,34.3684394 255.098105,34.3684394 C251.557217,34.3684394 248.227071,34.58904 245.719565,34.986121 L37.7378456,68.0660267 C34.2697006,68.6214877 30.8892756,71.4825075 29.1273895,75.3560275 L28.8353465,76.0031225 L28.1560522,76.0031225 L1.1746977,76.0031225 L0.000106975471,76.0031225 L0.100663923,74.766628 L0.15629117,74.0810693 C0.622704244,68.4370882 5.29860229,62.7535122 10.582121,61.4061517 L249.132083,0.93896658 C251.522985,0.333729085 254.663785,0 257.969327,0 C261.378636,0 264.556877,0.352960931 266.919965,0.992136976 L490.051552,61.3631629 C495.196003,62.7670876 498.993632,68.5615296 498.519731,74.2767816 L493.850251,130.782207 C493.383838,136.412612 488.720777,142.156146 483.461863,143.583828 L250.073467,206.630343 C247.631217,207.293276 244.421953,207.659812 241.045807,207.659812" id="Fill-9"></path>
                <path d="M344.228574,86.5797326 L357.790925,86.5797326 C357.790925,86.5797326 359.290721,64.1056241 336.83015,64.3171744 C314.603856,64.3171744 306.519719,84.4981681 306.230885,89.4871351 C305.943121,94.4896776 306.085399,99.2727507 310.585857,103.019567 C314.143861,105.718813 317.338149,108.217821 322.770363,109.462235 C328.159788,110.917068 335.106775,111.547193 337.253773,113.414945 C339.216773,115.292878 339.763418,118.2082 338.31604,121.323759 C337.045171,124.446105 330.659805,129.446385 323.859374,129.023285 C317.07071,128.606972 315.539891,125.688256 314.823155,124.446105 C314.152419,122.993535 315.115198,122.158647 314.133164,122.158647 L299.781334,122.158647 C299.781334,122.158647 298.590697,141.302252 320.884386,141.923328 C343.413421,142.340772 351.852716,122.367935 352.35871,118.2082 C353.683067,109.263129 351.046121,99.6845384 331.55412,96.9886862 C328.782385,96.1492727 326.726317,96.5678482 323.330915,94.0711021 C319.73333,91.5766186 320.443647,87.4078332 320.91113,86.1634197 C321.174289,84.914481 322.631295,81.7921343 325.441541,79.7105699 C328.013232,77.8348993 330.246879,76.5927483 334.583665,76.5927483 C338.866963,76.7952483 341.840882,78.4627625 343.160959,80.5454582 C345.112192,82.4188662 344.228574,86.5797326 344.228574,86.5797326" id="Fill-13"></path>
                <path d="M71.1573051,110.917181 C68.2946414,110.509918 67.5682779,108.423828 67.8453444,107.179415 L71.3327449,90.954525 C71.3327449,90.954525 75.8192963,77.4220934 87.8080379,77.4220934 C99.8128258,77.4220934 97.5545735,88.8661728 98.9270688,88.8661728 L111.112645,88.8661728 C111.112645,88.8661728 115.821706,64.3172875 90.6888875,64.1057372 C65.5207673,64.1057372 57.5992333,92.609595 57.5992333,92.609595 L54.5076421,106.967865 C53.8722077,109.879792 50.8169881,111.335756 49.434865,111.335756 L39.3994956,111.335756 L37.0717093,122.15876 L47.1049391,122.15876 C50.0510437,122.15876 50.6319206,124.032168 50.3345287,126.325283 L34.7460624,198.644941 L48.1201364,198.644941 L63.5246049,127.154515 C63.5395815,125.281107 65.6897885,122.575073 68.2529209,122.575073 L110.731813,122.575073 C113.291736,122.575073 114.10047,123.405436 114.202097,126.533439 L111.014228,141.301234 L123.997841,141.301234 L127.10227,126.950884 C127.84147,124.446218 129.616193,122.575073 131.933282,122.784361 L149.630235,122.784361 C152.427644,122.575073 153.469585,125.071819 153.060939,126.950884 L149.95972,141.301234 L163.327375,141.301234 L173.831297,92.609595 C173.831297,92.609595 180.028386,63.8964495 153.030985,64.1057372 C126.234699,64.3172875 121.51708,92.609595 121.51708,92.609595 L118.521767,106.554946 C117.910937,108.423828 115.999285,110.917181 113.241457,110.917181 L71.1573051,110.917181 Z M152.296064,111.335756 C154.153158,110.917181 156.637129,109.462348 157.322842,107.179415 L160.724662,91.3617876 C160.724662,91.3617876 162.706917,77.6313811 150.707478,77.6313811 C138.714458,77.6313811 135.050547,90.954525 135.050547,90.954525 L131.515008,107.389834 C131.205849,109.677292 132.865039,111.132125 134.787388,111.335756 L152.296064,111.335756 Z" id="Fill-17"></path>
                <path d="M372.593763,141.100657 L359.414385,141.100657 L369.90226,92.4010991 C369.90226,92.4010991 377.53924,64.3180794 402.906334,64.3180794 C428.290545,64.3180794 422.619775,92.4010991 422.619775,92.4010991 L412.117992,141.100657 L398.945032,141.100657 L401.406538,129.648659 C401.726395,128.192695 401.915741,125.48553 398.228297,125.281899 C392.01837,124.862192 385.840537,125.281899 379.926932,125.281899 C376.116466,125.68803 375.610472,127.980014 375.105548,129.446159 L372.593763,141.100657 Z M400.653431,114.047107 L382.16272,114.047107 C379.448752,113.836688 378.611134,111.335417 379.169546,109.678084 L383.38331,90.1159034 C383.38331,90.1159034 386.801176,77.0110975 399.199634,77.0110975 C411.583115,77.0110975 410.177457,89.9054843 409.934623,90.1159034 L405.80216,109.262903 C404.609384,113.007456 402.072995,113.836688 400.653431,114.047107 L400.653431,114.047107 Z" id="Fill-21"></path>
                <path d="M236.419973,141.100657 L223.453476,141.100657 L233.929584,91.5130404 C233.954189,87.8612523 233.020293,76.3447706 220.329792,76.1739466 C205.37783,76.1739466 200.302913,92.4010991 200.302913,92.4010991 L189.808619,141.100657 L176.634589,141.100657 L187.489391,90.7403727 C187.489391,90.7403727 195.203392,64.1053978 223.326175,64.1053978 C234.813202,64.1053978 240.849828,68.8963899 243.960675,74.5335833 C249.469912,68.9699235 257.718791,64.1053978 269.742834,64.1053978 C297.867756,64.1053978 293.329857,92.4010991 293.329857,92.4010991 L282.838772,141.100657 L269.870135,141.100657 L280.302383,92.6103869 C280.302383,92.6103869 282.042874,76.3798405 266.939007,76.1739466 C251.987045,76.1739466 246.918547,92.4010991 246.918547,92.4010991 L236.419973,141.100657 Z" id="Fill-25"></path>
            </g>
        </g>
    </g>
</svg>