<?xml version="1.0" encoding="UTF-8" standalone="no"?>
<svg width="512px" height="512px" viewBox="0 0 512 512" version="1.1" xmlns="http://www.w3.org/2000/svg" xmlns:xlink="http://www.w3.org/1999/xlink">
    <!-- Generator: Sketch 41.2 (35397) - http://www.bohemiancoding.com/sketch -->
    <title>icon-06</title>
    <desc>Created with Sketch.</desc>
    <defs></defs>
    <g id="FontIcons" stroke="none" stroke-width="1" fill="none" fill-rule="evenodd" opacity="0.2">
        <g id="icon-06" fill="#000000">
            <path d="M455.525886,455.140503 L206.754954,455.140503 L206.754954,356.284446 L316.332565,356.284446 C338.539467,356.284446 356.600683,338.240442 356.600683,316.055493 L356.600683,206.572998 L455.524858,206.572998 L455.524858,455.140503 L455.525886,455.140503 Z M56.9081973,305.428028 L56.9081973,56.8605239 L305.697623,56.8605239 L305.697623,155.712474 L196.114875,155.712474 C173.912082,155.712474 155.850866,173.760585 155.850866,195.944507 L155.850866,305.428028 L56.9081973,305.428028 Z M356.60171,155.712474 L356.60171,46.2299794 C356.60171,24.0460575 338.539467,6 316.332565,6 L46.268118,6 C24.0653259,6 6,24.0460575 6,46.2299794 L6,316.055493 C6,338.239415 24.0653259,356.284446 46.268118,356.284446 L155.850866,356.284446 L155.850866,465.770021 C155.850866,487.951889 173.912082,506 196.114875,506 L466.164938,506 C488.371839,506 506.432028,487.951889 506.432028,465.770021 L506.432028,195.944507 C506.433056,173.760585 488.372867,155.712474 466.165965,155.712474 L356.60171,155.712474 Z" id="Page-1"></path>
        </g>
    </g>
</svg>