<?xml version="1.0" encoding="UTF-8" standalone="no"?>
<svg width="512px" height="512px" viewBox="0 0 512 512" version="1.1" xmlns="http://www.w3.org/2000/svg" xmlns:xlink="http://www.w3.org/1999/xlink">
    <!-- Generator: Sketch 41.2 (35397) - http://www.bohemiancoding.com/sketch -->
    <title>icon-12</title>
    <desc>Created with Sketch.</desc>
    <defs></defs>
    <g id="FontIcons" stroke="none" stroke-width="1" fill="none" fill-rule="evenodd">
        <g id="icon-12" fill="#CCCCCC">
            <g id="alert" transform="translate(12.000000, 12.000000)">
                <path d="M244.575041,0.933661741 C110.395731,0.933661741 0.933661741,110.395731 0.933661741,244.575041 C0.933661741,378.754351 110.395731,488.21642 244.575041,488.21642 C378.754351,488.21642 488.21642,378.754351 488.21642,244.575041 C488.21642,110.395731 378.754351,0.933661741 244.575041,0.933661741 Z M244.575041,366.395731 C226.919869,366.395731 214.561248,352.271593 214.561248,336.381938 C214.561248,318.726765 228.685386,306.368144 244.575041,306.368144 C262.230213,306.368144 274.588834,320.492282 274.588834,336.381938 C274.588834,352.271593 260.464696,366.395731 244.575041,366.395731 Z M274.588834,260.464696 L214.561248,260.464696 L198.671593,138.644007 C198.671593,129.81642 205.733662,122.754351 214.561248,122.754351 L274.588834,122.754351 C283.41642,122.754351 290.478489,129.81642 290.478489,138.644007 L274.588834,260.464696 Z" id="Shape"></path>
            </g>
        </g>
    </g>
</svg>