<?xml version="1.0" encoding="UTF-8" standalone="no"?>
<svg width="512px" height="512px" viewBox="0 0 512 512" version="1.1" xmlns="http://www.w3.org/2000/svg" xmlns:xlink="http://www.w3.org/1999/xlink">
    <!-- Generator: Sketch 41.2 (35397) - http://www.bohemiancoding.com/sketch -->
    <title>icon-03</title>
    <desc>Created with Sketch.</desc>
    <defs></defs>
    <g id="FontIcons" stroke="none" stroke-width="1" fill="none" fill-rule="evenodd">
        <g id="icon-03" fill="#CCCCCC">
            <g id="icon-credit-card" transform="translate(17.000000, 8.000000)">
                <path d="M464.214507,232.987117 L242.129837,13.0050734 C233.379784,4.33874234 221.915751,0 210.451718,0 C198.987685,0 187.512391,4.33874234 178.773599,13.0050734 L57.1512451,133.441422 C39.6511397,150.774085 39.6511397,179.416476 57.1512451,196.749138 L77.3090242,217.260571 L123.807052,217.260571 L80.4058896,173.716997 C77.3653308,170.694377 76.9148776,166.913314 76.9148776,165.084127 C76.9148776,163.25494 77.3653308,159.607719 80.4058896,156.596253 L96.4645449,141.182006 L172.782572,217.260571 L245.992472,217.260571 L133.063864,104.854799 L202.016982,36.2937469 C205.057541,33.2822805 208.60486,32.713448 210.451718,32.713448 C212.298576,32.713448 215.845895,33.0926697 218.886453,36.0929825 L440.982386,256.041566 C444.034206,259.064186 444.49592,262.544102 444.49592,264.384443 C444.49592,266.21363 443.707627,269.715854 440.655807,272.738474 L428.065641,284.907029 L428.065641,330.960158 L463.921713,295.770615 C481.410557,278.404492 481.725874,250.31978 464.214507,232.987117" id="Fill-1"></path>
                <path d="M109.775436,359.736392 C101.002861,359.736392 93.0636235,356.278783 87.2077324,350.701993 C81.3518413,356.278783 73.401343,359.736392 64.6512903,359.736392 C46.6556864,359.736392 32.0497426,345.292507 32.0497426,327.435627 C32.0497426,309.601053 46.6444251,295.146015 64.6512903,295.146015 C73.4126043,295.146015 81.3631026,298.592471 87.2077324,304.16926 C93.0636235,298.592471 101.002861,295.146015 109.775436,295.146015 C127.782301,295.146015 142.376984,309.601053 142.376984,327.435627 C142.376984,345.292507 127.782301,359.736392 109.775436,359.736392 M360.013429,237.883539 L45.9011773,237.883539 C21.1600373,237.883539 0,257.625374 0,282.129788 L0,399.800049 L404.259191,399.800049 L404.259191,282.129788 C404.259191,257.625374 384.754569,237.883539 360.013429,237.883539" id="Fill-3"></path>
                <path d="M0,452.456097 C0,476.96051 21.148776,496.958878 45.9011773,496.958878 L314.665738,496.958878 L360.013429,496.958878 C384.754569,496.958878 404.270453,476.96051 404.270453,452.456097 L404.270453,449.846159 L0,449.846159 L0,452.456097 Z" id="Fill-5"></path>
            </g>
        </g>
    </g>
</svg>