<?xml version="1.0" encoding="UTF-8" standalone="no"?>
<svg width="512px" height="512px" viewBox="0 0 512 512" version="1.1" xmlns="http://www.w3.org/2000/svg" xmlns:xlink="http://www.w3.org/1999/xlink">
    <!-- Generator: Sketch 41.2 (35397) - http://www.bohemiancoding.com/sketch -->
    <title>icon-08</title>
    <desc>Created with Sketch.</desc>
    <defs></defs>
    <g id="FontIcons" stroke="none" stroke-width="1" fill="none" fill-rule="evenodd">
        <g id="icon-08">
            <path d="M18.3829787,9.08641975 L18.3829787,215.802469 L35.4042553,178.320988 L70.5815603,178.320988 L75.1205674,187.407407 L75.1205674,178.320988 L117.106383,178.320988 L126.184397,198.765432 L135.262411,178.320988 L268.028369,178.320988 C273.702128,178.320988 279.375887,179.45679 283.914894,182.864198 L283.914894,178.320988 L320.22695,178.320988 L320.22695,181.728395 C325.900709,178.320988 333.843972,177.185185 342.921986,177.185185 L395.120567,177.185185 L399.659574,186.271605 L399.659574,177.185185 L438.241135,177.185185 L443.914894,186.271605 L443.914894,177.185185 L481.361702,177.185185 L481.361702,257.82716 L443.914894,257.82716 L435.971631,245.333333 L435.971631,257.82716 L388.312057,257.82716 L382.638298,245.333333 L371.29078,245.333333 L365.617021,257.82716 L341.787234,257.82716 C331.574468,257.82716 324.765957,255.555556 320.22695,253.283951 L320.22695,257.82716 L261.219858,257.82716 L261.219858,238.518519 C261.219858,236.246914 261.219858,235.111111 258.950355,235.111111 L256.680851,235.111111 L256.680851,256.691358 L142.070922,256.691358 L142.070922,246.469136 L137.531915,256.691358 L113.702128,256.691358 L109.163121,246.469136 L109.163121,256.691358 L62.6382979,256.691358 L58.0992908,244.197531 L46.751773,244.197531 L41.0780142,256.691358 L17.248227,256.691358 L17.248227,499.753086 L506.056738,499.753086 L506.056738,352.098765 C500.382979,354.37037 491.574468,355.506173 484.765957,355.506173 L449.588652,355.506173 L449.588652,350.962963 C445.049645,354.37037 438.241135,355.506173 431.432624,355.506173 L319.092199,355.506173 L319.092199,337.333333 C319.092199,335.061728 319.092199,335.061728 316.822695,335.061728 L314.553191,335.061728 L314.553191,355.506173 L278.241135,355.506173 L278.241135,333.925926 C272.567376,337.333333 265.758865,337.333333 258.950355,337.333333 L254.411348,337.333333 L254.411348,356.641975 L209.021277,356.641975 L198.808511,344.148148 L187.460993,356.641975 L114.836879,356.641975 L114.836879,276 L188.595745,276 L198.808511,288.493827 L210.156028,276 L260.085106,276 C265.758865,276 274.836879,277.135802 279.375887,280.54321 L279.375887,276 L323.631206,276 C328.170213,276 336.113475,277.135802 342.921986,280.54321 L342.921986,276 L409.87234,276 L409.87234,280.54321 C413.276596,277.135802 420.085106,276 426.893617,276 L464.340426,276 L464.340426,280.54321 C468.879433,278.271605 474.553191,276 481.361702,276 L506.326241,276 L506.326241,9.08641975 L18.3829787,9.08641975 Z M508.595745,327.111111 C508.595745,339.604938 500.652482,345.283951 487.035461,345.283951 L460.93617,345.283951 L460.93617,332.790123 L487.035461,332.790123 C489.304965,332.790123 491.574468,332.790123 492.70922,331.654321 C493.843972,330.518519 493.843972,329.382716 493.843972,328.246914 C493.843972,325.975309 492.70922,324.839506 492.70922,323.703704 C491.574468,322.567901 490.439716,322.567901 488.170213,322.567901 C475.687943,322.567901 459.801418,322.567901 459.801418,304.395062 C459.801418,296.444444 465.475177,287.358025 479.092199,287.358025 L506.326241,287.358025 L506.326241,299.851852 L481.361702,299.851852 C479.092199,299.851852 476.822695,299.851852 475.687943,300.987654 C474.553191,302.123457 473.41844,303.259259 473.41844,305.530864 C473.41844,307.802469 474.553191,308.938272 475.687943,310.074074 C477.957447,310.074074 479.092199,311.209877 481.361702,311.209877 L489.304965,311.209877 C497.248227,311.209877 501.787234,313.481481 505.191489,315.753086 C506.326241,316.888889 508.595745,321.432099 508.595745,327.111111 Z M450.723404,314.617284 C447.319149,312.345679 442.780142,310.074074 434.836879,310.074074 L426.893617,310.074074 C424.624113,310.074074 423.489362,310.074074 421.219858,308.938272 C420.085106,307.802469 418.950355,306.666667 418.950355,304.395062 C418.950355,302.123457 418.950355,300.987654 421.219858,299.851852 C422.35461,298.716049 423.489362,298.716049 426.893617,298.716049 L451.858156,298.716049 L451.858156,286.222222 L424.624113,286.222222 C409.87234,286.222222 405.333333,295.308642 405.333333,303.259259 C405.333333,321.432099 421.219858,320.296296 433.702128,321.432099 C435.971631,321.432099 438.241135,321.432099 438.241135,322.567901 C439.375887,323.703704 440.510638,324.839506 440.510638,327.111111 C440.510638,328.246914 439.375887,329.382716 438.241135,330.518519 C437.106383,331.654321 435.971631,331.654321 432.567376,331.654321 L406.468085,331.654321 L406.468085,344.148148 L432.567376,344.148148 C446.184397,344.148148 454.12766,338.469136 454.12766,325.975309 C455.262411,321.432099 452.992908,316.888889 450.723404,314.617284 Z M398.524823,332.790123 L366.751773,332.790123 L366.751773,321.432099 L398.524823,321.432099 L398.524823,310.074074 L366.751773,310.074074 L366.751773,299.851852 L398.524823,299.851852 L398.524823,287.358025 L353.134752,287.358025 L353.134752,344.148148 L398.524823,344.148148 L398.524823,332.790123 Z M338.382979,289.62963 C333.843972,287.358025 328.170213,287.358025 321.361702,287.358025 L289.588652,287.358025 L289.588652,344.148148 L303.205674,344.148148 L303.205674,323.703704 L319.092199,323.703704 C323.631206,323.703704 327.035461,323.703704 329.304965,325.975309 C331.574468,328.246914 331.574468,333.925926 331.574468,337.333333 L331.574468,344.148148 L345.191489,344.148148 L345.191489,332.790123 C345.191489,327.111111 345.191489,324.839506 342.921986,322.567901 C341.787234,320.296296 339.51773,319.160494 336.113475,318.024691 C339.51773,316.888889 346.326241,312.345679 346.326241,303.259259 C345.191489,296.444444 342.921986,293.037037 338.382979,289.62963 Z M261.219858,287.358025 L216.964539,287.358025 L199.943262,306.666667 L182.921986,287.358025 L127.319149,287.358025 L127.319149,344.148148 L181.787234,344.148148 L198.808511,324.839506 L215.829787,344.148148 L241.929078,344.148148 L241.929078,324.839506 L258.950355,324.839506 C270.297872,324.839506 282.780142,321.432099 282.780142,305.530864 C283.914894,290.765432 271.432624,287.358025 261.219858,287.358025 Z M327.035461,311.209877 C324.765957,312.345679 322.496454,312.345679 320.22695,312.345679 L303.205674,312.345679 L303.205674,299.851852 L320.22695,299.851852 C322.496454,299.851852 324.765957,299.851852 327.035461,300.987654 C329.304965,302.123457 329.304965,303.259259 329.304965,305.530864 C330.439716,307.802469 329.304965,310.074074 327.035461,311.209877 Z M261.219858,313.481481 L243.06383,313.481481 L243.06383,298.716049 L261.219858,298.716049 C265.758865,298.716049 269.163121,300.987654 269.163121,305.530864 C269.163121,311.209877 265.758865,313.481481 261.219858,313.481481 Z M207.886525,315.753086 L229.446809,293.037037 L229.446809,339.604938 L207.886525,315.753086 Z M174.978723,332.790123 L140.93617,332.790123 L140.93617,321.432099 L171.574468,321.432099 L171.574468,310.074074 L140.93617,310.074074 L140.93617,299.851852 L174.978723,299.851852 L189.730496,316.888889 L174.978723,332.790123 Z M470.014184,246.469136 L450.723404,246.469136 L424.624113,203.308642 L424.624113,246.469136 L397.390071,246.469136 L391.716312,233.975309 L363.347518,233.975309 L357.673759,246.469136 L341.787234,246.469136 C334.978723,246.469136 327.035461,245.333333 321.361702,239.654321 C316.822695,235.111111 314.553191,228.296296 314.553191,218.074074 C314.553191,208.987654 315.687943,202.17284 322.496454,195.358025 C327.035461,190.814815 333.843972,188.54321 342.921986,188.54321 L355.404255,188.54321 L355.404255,201.037037 L342.921986,201.037037 C338.382979,201.037037 334.978723,202.17284 332.70922,204.444444 C330.439716,206.716049 329.304965,211.259259 329.304965,216.938272 C329.304965,222.617284 330.439716,227.160494 332.70922,230.567901 C334.978723,232.839506 338.382979,232.839506 341.787234,232.839506 L347.460993,232.839506 L366.751773,187.407407 L387.177305,187.407407 L409.87234,241.925926 L409.87234,187.407407 L432.567376,187.407407 L456.397163,227.160494 L456.397163,187.407407 L470.014184,187.407407 L470.014184,246.469136 Z M308.879433,188.54321 L295.262411,188.54321 L295.262411,245.333333 L308.879433,245.333333 L308.879433,188.54321 Z M279.375887,190.814815 C274.836879,188.54321 270.297872,188.54321 263.489362,188.54321 L231.716312,188.54321 L231.716312,245.333333 L245.333333,245.333333 L245.333333,224.888889 L260.085106,224.888889 C264.624113,224.888889 268.028369,224.888889 270.297872,227.160494 C272.567376,230.567901 272.567376,235.111111 272.567376,238.518519 L272.567376,245.333333 L286.184397,245.333333 L286.184397,233.975309 C286.184397,229.432099 286.184397,226.024691 283.914894,223.753086 C282.780142,221.481481 280.510638,220.345679 277.106383,219.209877 C280.510638,216.938272 287.319149,213.530864 287.319149,204.444444 C287.319149,197.62963 283.914894,194.222222 279.375887,190.814815 Z M221.503546,233.975309 L189.730496,233.975309 L189.730496,222.617284 L221.503546,222.617284 L221.503546,211.259259 L189.730496,211.259259 L189.730496,201.037037 L221.503546,201.037037 L221.503546,188.54321 L176.113475,188.54321 L176.113475,245.333333 L221.503546,245.333333 L221.503546,233.975309 Z M165.900709,188.54321 L143.205674,188.54321 L127.319149,227.160494 L109.163121,188.54321 L87.6028369,188.54321 L87.6028369,243.061728 L63.7730496,188.54321 L43.3475177,188.54321 L18.3829787,245.333333 L33.1347518,245.333333 L38.8085106,232.839506 L67.177305,232.839506 L72.8510638,245.333333 L101.219858,245.333333 L101.219858,201.037037 L121.64539,245.333333 L132.992908,245.333333 L153.41844,201.037037 L153.41844,245.333333 L167.035461,245.333333 L167.035461,188.54321 L165.900709,188.54321 Z M387.177305,221.481481 L378.099291,198.765432 L369.021277,221.481481 L387.177305,221.481481 Z M269.163121,212.395062 C266.893617,213.530864 264.624113,213.530864 262.35461,213.530864 L245.333333,213.530864 L245.333333,201.037037 L262.35461,201.037037 C264.624113,201.037037 268.028369,201.037037 269.163121,202.17284 C271.432624,203.308642 271.432624,204.444444 271.432624,207.851852 C271.432624,208.987654 270.297872,211.259259 269.163121,212.395062 Z M43.3475177,221.481481 L52.4255319,198.765432 L61.5035461,221.481481 L43.3475177,221.481481 Z" id="Combined-Shape" fill="#CCCCCC"></path>
            <g id="american" transform="translate(16.803089, 8.895753)">
                <g id="Group"></g>
            </g>
        </g>
    </g>
</svg>