<?xml version="1.0" encoding="UTF-8" standalone="no"?>
<svg width="512px" height="512px" viewBox="0 0 512 512" version="1.1" xmlns="http://www.w3.org/2000/svg" xmlns:xlink="http://www.w3.org/1999/xlink">
    <!-- Generator: Sketch 41.2 (35397) - http://www.bohemiancoding.com/sketch -->
    <title>icon-02</title>
    <desc>Created with Sketch.</desc>
    <defs></defs>
    <g id="FontIcons" stroke="none" stroke-width="1" fill="none" fill-rule="evenodd">
        <g id="icon-02" fill="#CCCCCC">
            <path d="M442.832866,117.8112 C463.537322,105.181867 479.439954,85.1797333 486.925766,61.3546667 C467.54653,73.0538667 446.078815,81.5488 423.235556,86.1226667 C404.942496,66.2826667 378.87845,53.8965333 350.025573,53.8965333 C294.638952,53.8965333 249.72408,99.5882667 249.72408,155.938133 C249.72408,163.933867 250.613151,171.7248 252.328387,179.195733 C168.965379,174.929067 95.0634302,134.306133 45.598359,72.5802667 C36.9592707,87.6416 32.0106667,105.173333 32.0106667,123.8784 C32.0106667,159.2704 49.716604,190.506667 76.6319772,208.810667 C60.192547,208.285867 44.7218689,203.6864 31.2054701,196.0448 C31.1928889,196.471467 31.1928889,196.9024 31.1928889,197.329067 C31.1928889,246.7712 65.7702108,288.0128 111.649641,297.390933 C103.237014,299.720533 94.3714644,300.9664 85.2249345,300.9664 C78.7623932,300.9664 72.4801823,300.3264 66.3573333,299.136 C79.1188604,339.677867 116.157903,369.181867 160.049504,370.001067 C125.723806,397.380267 82.4780399,413.687467 35.4830769,413.687467 C27.3849801,413.687467 19.4043077,413.201067 11.5578348,412.253867 C55.9442963,441.211733 108.663704,458.103467 165.308444,458.103467 C349.794917,458.103467 450.675145,302.613333 450.675145,167.7696 C450.675145,163.345067 450.578689,158.9504 450.385778,154.5728 C469.987282,140.181333 486.988672,122.205867 500.442165,101.742933 C482.451054,109.858133 463.122142,115.349333 442.832866,117.8112 Z" id="Fill-1"></path>
        </g>
    </g>
</svg>