<?xml version="1.0" encoding="UTF-8" standalone="no"?>
<svg width="512px" height="512px" viewBox="0 0 512 512" version="1.1" xmlns="http://www.w3.org/2000/svg" xmlns:xlink="http://www.w3.org/1999/xlink">
    <!-- Generator: Sketch 41.2 (35397) - http://www.bohemiancoding.com/sketch -->
    <title>icon-14</title>
    <desc>Created with Sketch.</desc>
    <defs></defs>
    <g id="FontIcons" stroke="none" stroke-width="1" fill="none" fill-rule="evenodd">
        <g id="icon-14" fill="#CCCCCC">
            <g id="candado" transform="translate(65.000000, 8.000000)">
                <path d="M358.198198,199.993994 L347.750751,199.993994 L347.750751,155.219219 C347.750751,71.6396396 280.588589,1.49249249 197.009009,0 L188.054054,0 C104.474474,1.49249249 37.3123123,71.6396396 37.3123123,155.219219 L37.3123123,199.993994 L26.8648649,199.993994 C11.9399399,199.993994 1.13686838e-13,214.918919 1.13686838e-13,234.321321 L1.13686838e-13,462.672673 C1.13686838e-13,482.075075 11.9399399,497 26.8648649,497 L355.213213,497 C370.138138,497 382.078078,482.075075 382.078078,462.672673 L382.078078,234.321321 C385.063063,214.918919 373.123123,199.993994 358.198198,199.993994 Z M223.873874,347.750751 L223.873874,416.405405 C223.873874,423.867868 217.903904,431.33033 208.948949,431.33033 L176.114114,431.33033 C168.651652,431.33033 161.189189,425.36036 161.189189,416.405405 L161.189189,347.750751 C153.726727,340.288288 149.249249,329.840841 149.249249,317.900901 C149.249249,295.513514 165.666667,277.603604 188.054054,276.111111 L197.009009,276.111111 C217.903904,277.603604 235.813814,295.513514 235.813814,317.900901 C235.813814,329.840841 231.336336,340.288288 223.873874,347.750751 Z M283.573574,199.993994 L197.009009,199.993994 L188.054054,199.993994 L101.489489,199.993994 L101.489489,155.219219 C101.489489,104.474474 141.786787,64.1771772 192.531532,64.1771772 C241.783784,64.1771772 283.573574,105.966967 283.573574,155.219219 L283.573574,199.993994 L283.573574,199.993994 Z" id="Shape"></path>
            </g>
        </g>
    </g>
</svg>