<?xml version="1.0" encoding="UTF-8" standalone="no"?>
<svg width="512px" height="512px" viewBox="0 0 512 512" version="1.1" xmlns="http://www.w3.org/2000/svg" xmlns:xlink="http://www.w3.org/1999/xlink">
    <!-- Generator: Sketch 41.2 (35397) - http://www.bohemiancoding.com/sketch -->
    <title>icon-21</title>
    <desc>Created with Sketch.</desc>
    <defs></defs>
    <g id="FontIcons" stroke="none" stroke-width="1" fill="none" fill-rule="evenodd">
        <g id="icon-21" fill="#CCCCCC">
            <path d="M267.318182,131.5 L244.681818,131.5 L244.681818,244.681818 L131.5,244.681818 L131.5,267.318182 L244.681818,267.318182 L244.681818,380.5 L267.318182,380.5 L267.318182,267.318182 L380.5,267.318182 L380.5,244.681818 L267.318182,244.681818 L267.318182,131.5 Z M256,482.363636 C130.979364,482.363636 29.6363636,381.020636 29.6363636,256 C29.6363636,130.979364 130.979364,29.6363636 256,29.6363636 C381.020636,29.6363636 482.363636,130.979364 482.363636,256 C482.363636,381.020636 381.020636,482.363636 256,482.363636 L256,482.363636 Z M7,256 C7,393.515909 118.484091,505 256,505 C393.515909,505 505,393.515909 505,256 C505,118.484091 393.515909,7 256,7 C118.484091,7 7,118.484091 7,256 Z" id="Page-1"></path>
        </g>
    </g>
</svg>