<?xml version="1.0" encoding="UTF-8" standalone="no"?>
<svg width="512px" height="512px" viewBox="0 0 512 512" version="1.1" xmlns="http://www.w3.org/2000/svg" xmlns:xlink="http://www.w3.org/1999/xlink">
    <!-- Generator: Sketch 41.2 (35397) - http://www.bohemiancoding.com/sketch -->
    <title>icon-15</title>
    <desc>Created with Sketch.</desc>
    <defs></defs>
    <g id="FontIcons" stroke="none" stroke-width="1" fill="none" fill-rule="evenodd">
        <g id="icon-15" fill="#CCCCCC">
            <g id="carrito" transform="translate(10.000000, 16.000000)">
                <path d="M98.5727562,432.856889 C98.5727562,459.576339 120.65843,480.487212 147.393719,480.487212 C174.129008,480.487212 196.214681,458.414623 196.214681,432.856889 C196.214681,406.13744 174.129008,385.226567 147.393719,385.226567 C120.65843,385.226567 98.5727562,406.13744 98.5727562,432.856889 Z M345.002376,432.856889 C345.002376,459.576339 367.08805,480.487212 393.823339,480.487212 C420.558628,480.487212 442.644301,458.414623 442.644301,432.856889 C442.644301,406.13744 420.558628,385.226567 393.823339,385.226567 C367.08805,385.226567 345.002376,406.13744 345.002376,432.856889 Z M0.930831223,0.698844285 L0.930831223,48.3291665 L49.7517937,48.3291665 L138.094488,230.718449 L103.222372,288.804208 C100.897564,295.774499 98.5727562,305.06822 98.5727562,313.200226 C98.5727562,339.919675 120.65843,360.830549 147.393719,360.830549 L442.644301,360.830549 L442.644301,313.200226 L157.855353,313.200226 C155.530546,313.200226 153.205738,310.876796 153.205738,308.553366 L153.205738,306.229935 L175.291411,265.569904 L357.788819,265.569904 C377.549685,265.569904 392.660935,256.276183 399.635358,241.173886 L487.978052,85.5040521 C492.627668,80.8571914 492.627668,78.533761 492.627668,73.8869003 C492.627668,59.9463182 483.328437,49.4908816 468.217186,49.4908816 L103.222372,49.4908816 L81.1366981,1.86055946 L0.930831223,1.86055946 L0.930831223,0.698844285 Z" id="Shape"></path>
            </g>
        </g>
    </g>
</svg>