<?xml version="1.0" encoding="UTF-8" standalone="no"?>
<svg width="512px" height="512px" viewBox="0 0 512 512" version="1.1" xmlns="http://www.w3.org/2000/svg" xmlns:xlink="http://www.w3.org/1999/xlink">
    <!-- Generator: Sketch 41.2 (35397) - http://www.bohemiancoding.com/sketch -->
    <title>icon-07</title>
    <desc>Created with Sketch.</desc>
    <defs></defs>
    <g id="FontIcons" stroke="none" stroke-width="1" fill="none" fill-rule="evenodd">
        <g id="icon-07" fill="#CCCCCC">
            <path d="M490.109626,391.15358 C491.104139,398.772765 488.782256,405.397438 483.15372,411.027598 L417.072611,476.609421 C414.091509,479.921757 410.200325,482.739678 405.397438,485.055878 C400.59455,487.375325 395.875283,488.865877 391.239636,489.527532 C390.908402,489.527532 389.912266,489.612776 388.255286,489.778393 C386.601553,489.943198 384.448534,490.02763 381.798665,490.02763 C375.503603,490.02763 365.317357,488.951121 351.239928,486.79729 C337.162498,484.64346 319.939162,479.34291 299.569917,470.898076 C279.195802,462.451618 256.093068,449.780308 230.257657,432.889017 C204.422245,415.998538 176.929042,392.81056 147.780483,363.329955 C124.594129,340.474835 105.382579,318.613415 90.1458318,297.746508 C74.9090849,276.877978 62.6534406,257.583619 53.378899,239.86262 C44.1035456,222.141621 37.1476394,206.07679 32.5103686,191.668127 C27.8730978,177.259464 24.7263783,164.838203 23.0702102,154.404344 C21.414042,143.970485 20.7515748,135.772452 21.0828084,129.810247 C21.414042,123.848042 21.5796588,120.535705 21.5796588,119.873238 C22.2421261,115.235967 23.7326774,110.515888 26.0513128,105.713 C28.3699482,100.910113 31.1854341,97.0181177 34.4977704,94.0370151 L100.578879,27.9559062 C105.21615,23.3186354 110.515888,21 116.478093,21 C120.784131,21 124.593317,22.2421261 127.905654,24.7263783 C131.21799,27.2106305 134.033476,30.2745416 136.352111,33.9181115 L189.515109,134.778751 C192.496211,140.078489 193.324295,145.875078 191.999361,152.168517 C190.674426,158.461956 187.85894,163.761694 183.552903,168.067731 L159.207232,192.413403 C158.544764,193.07587 157.965105,194.152379 157.468255,195.642931 C156.971405,197.133482 156.722979,198.375608 156.722979,199.369309 C158.047914,206.325215 161.029016,214.274822 165.666287,223.21813 C169.641091,231.167737 175.768913,240.856321 184.049754,252.283881 C192.330594,263.711441 204.089388,276.877166 219.326135,291.782679 C234.231648,307.02105 247.480994,318.861029 259.074171,327.30911 C270.664912,335.75232 280.356743,341.965386 288.140733,345.94019 C295.924724,349.914993 301.886929,352.316437 306.026537,353.142085 L312.235544,354.385023 C312.898011,354.385023 313.976956,354.135786 315.465884,353.639748 C316.956435,353.142085 318.032945,352.563238 318.696224,351.899959 L347.015887,323.082634 C352.98134,317.783707 359.933999,315.133838 367.884417,315.133838 C373.517013,315.133838 377.986231,316.126727 381.298568,318.114941 L381.794606,318.114941 L477.68593,374.755892 C484.644272,379.065176 488.78388,384.528907 490.109626,391.15358" id="Page-1"></path>
        </g>
    </g>
</svg>