<?xml version="1.0" encoding="UTF-8" standalone="no"?>
<svg width="512px" height="512px" viewBox="0 0 512 512" version="1.1" xmlns="http://www.w3.org/2000/svg" xmlns:xlink="http://www.w3.org/1999/xlink">
    <!-- Generator: Sketch 41.2 (35397) - http://www.bohemiancoding.com/sketch -->
    <title>icon-11</title>
    <desc>Created with Sketch.</desc>
    <defs></defs>
    <g id="FontIcons" stroke="none" stroke-width="1" fill="none" fill-rule="evenodd">
        <g id="icon-11" fill="#CCCCCC">
            <g id="paypal" transform="translate(10.000000, 190.000000)">
                <g id="Group" transform="translate(0.000000, -0.000000)">
                    <path d="M333.347396,1.31105081 L295.134402,1.31105081 C292.695275,1.31105081 290.256148,2.93713567 290.256148,6.18930539 L273.995299,103.754397 C273.995299,105.380482 274.808341,107.819609 277.247469,107.819609 L296.760487,107.819609 C298.386572,107.819609 300.012657,106.193524 300.825699,104.567439 L304.890911,76.9239968 C305.703954,74.4848695 307.330039,72.0457422 309.769166,72.0457422 L321.964802,72.0457422 C347.169118,72.0457422 361.803881,59.8501058 365.869094,35.4588329 C367.495178,24.8892813 365.869094,16.758857 360.990839,11.06756 C356.112584,4.56322053 346.356075,1.31105081 333.347396,1.31105081 Z M337.412608,37.0849177 C334.973481,50.906639 324.40393,50.906639 314.64742,50.906639 L308.956123,50.906639 L313.021336,24.8892813 C313.021336,23.2631964 314.64742,22.450154 316.273505,22.450154 L318.712633,22.450154 C326.030014,22.450154 332.534354,22.450154 335.786524,26.5153661 C338.225651,28.9544934 338.225651,32.2066632 337.412608,37.0849177 Z" id="Shape"></path>
                    <path d="M59.3520974,1.31105081 L21.1391032,1.31105081 C18.6999759,1.31105081 16.2608486,2.93713567 16.2608486,6.18930539 L0.81304243,103.754397 C0.81304243,105.380482 1.62608486,107.819609 4.06521215,107.819609 L22.765188,107.819609 C25.2043153,107.819609 27.6434426,106.193524 27.6434426,102.941355 L31.7086548,76.1109544 C32.5216972,73.6718271 34.1477821,71.2326998 36.5869094,71.2326998 L48.7825458,71.2326998 C73.9868611,71.2326998 88.6216249,59.0370633 92.686837,34.6457904 C94.3129219,24.0762388 92.686837,15.9458145 87.8085824,10.2545175 C82.1172854,4.56322053 72.3607763,1.31105081 59.3520974,1.31105081 Z M64.230352,37.0849177 C61.7912247,50.906639 51.2216731,50.906639 41.4651639,50.906639 L35.7738669,50.906639 L39.8390791,24.8892813 C39.8390791,23.2631964 41.4651639,22.450154 43.0912488,22.450154 L45.5303761,22.450154 C52.847758,22.450154 59.3520974,22.450154 62.6042671,26.5153661 C64.230352,28.9544934 65.0433944,32.2066632 64.230352,37.0849177 Z" id="Shape"></path>
                    <path d="M173.99108,36.2718753 L155.291104,36.2718753 C153.665019,36.2718753 152.038934,37.0849177 152.038934,38.7110026 L151.225892,43.5892572 L149.599807,41.9631723 C145.534595,36.2718753 136.591128,34.6457904 127.647662,34.6457904 C107.321601,34.6457904 90.2477097,50.0935966 86.99554,71.2326998 C85.3694552,81.8022514 87.8085824,92.371803 93.4998795,99.6891848 C99.1911765,106.193524 107.321601,108.632652 116.265068,108.632652 C132.525916,108.632652 141.469383,98.0631 141.469383,98.0631 L142.282425,103.754397 C142.282425,105.380482 143.095468,107.819609 145.534595,107.819609 L161.795444,107.819609 C164.234571,107.819609 166.673698,106.193524 166.673698,102.941355 L176.430207,40.3370875 C178.056292,37.8979602 176.430207,36.2718753 173.99108,36.2718753 Z M148.786765,72.0457422 C147.16068,82.6152938 139.030256,89.9326757 127.647662,89.9326757 C121.956365,89.9326757 117.891152,88.3065908 115.452025,85.0544211 C113.012898,81.8022514 111.386813,76.9239968 112.199855,72.0457422 C113.82594,61.4761906 121.956365,54.1588088 132.525916,54.1588088 C137.404171,54.1588088 142.282425,55.7848936 144.721553,59.0370633 C148.786765,62.2892331 149.599807,67.1674876 148.786765,72.0457422 Z" id="Shape"></path>
                    <path d="M447.986379,36.2718753 L429.286403,36.2718753 C427.660318,36.2718753 426.034233,37.0849177 426.034233,38.7110026 L425.221191,43.5892572 L423.595106,41.9631723 C419.529894,36.2718753 410.586427,34.6457904 401.64296,34.6457904 C381.3169,34.6457904 364.243009,50.0935966 360.990839,71.2326998 C359.364754,81.8022514 361.803881,92.371803 367.495178,99.6891848 C373.186475,106.193524 381.3169,108.632652 390.260366,108.632652 C406.521215,108.632652 415.464682,98.0631 415.464682,98.0631 L416.277724,103.754397 C416.277724,105.380482 417.090767,107.819609 419.529894,107.819609 L435.790743,107.819609 C438.22987,107.819609 440.668997,106.193524 440.668997,102.941355 L450.425506,40.3370875 C451.238549,37.8979602 449.612464,36.2718753 447.986379,36.2718753 Z M422.782064,72.0457422 C421.155979,82.6152938 413.025554,89.9326757 401.64296,89.9326757 C395.951663,89.9326757 391.886451,88.3065908 389.447324,85.0544211 C387.008197,81.8022514 385.382112,76.9239968 386.195154,72.0457422 C387.821239,61.4761906 395.951663,54.1588088 406.521215,54.1588088 C411.39947,54.1588088 416.277724,55.7848936 418.716851,59.0370633 C421.969021,62.2892331 423.595106,67.1674876 422.782064,72.0457422 Z" id="Shape"></path>
                    <path d="M272.369214,36.2718753 L253.669238,36.2718753 C252.043153,36.2718753 250.417068,37.0849177 249.604026,38.7110026 L224.399711,76.1109544 L213.830159,40.3370875 C213.017117,37.8979602 211.391032,36.2718753 208.951905,36.2718753 L191.064971,36.2718753 C188.625844,36.2718753 186.999759,38.7110026 187.812801,40.3370875 L208.138862,99.6891848 L188.625844,126.519585 C186.999759,128.958712 188.625844,131.39784 191.064971,131.39784 L209.764947,131.39784 C211.391032,131.39784 213.017117,130.584797 213.830159,128.958712 L275.621384,40.3370875 C276.434426,39.524045 274.808341,36.2718753 272.369214,36.2718753 Z" id="Shape"></path>
                    <path d="M469.938525,3.7501781 L453.677676,103.754397 C453.677676,105.380482 454.490718,107.819609 456.929846,107.819609 L472.377652,107.819609 C474.816779,107.819609 477.255906,106.193524 477.255906,102.941355 L492.703713,4.56322053 C492.703713,2.93713567 491.89067,0.498008377 489.451543,0.498008377 L471.564609,0.498008377 C471.564609,1.31105081 469.938525,2.12409324 469.938525,3.7501781 Z" id="Shape"></path>
                </g>
            </g>
        </g>
    </g>
</svg>