<?xml version="1.0" encoding="UTF-8" standalone="no"?>
<svg width="512px" height="512px" viewBox="0 0 512 512" version="1.1" xmlns="http://www.w3.org/2000/svg" xmlns:xlink="http://www.w3.org/1999/xlink">
    <!-- Generator: Sketch 41.2 (35397) - http://www.bohemiancoding.com/sketch -->
    <title>icon-05</title>
    <desc>Created with Sketch.</desc>
    <defs></defs>
    <g id="FontIcons" stroke="none" stroke-width="1" fill="none" fill-rule="evenodd" opacity="0.200000003">
        <g id="icon-05" fill="#000000">
            <g id="Page-1" transform="translate(12.000000, 61.000000)">
                <path d="M244.128318,78.8985166 L69.9944629,223.2995 C69.9944629,223.503295 69.9435475,223.803119 69.8417167,224.211776 C69.7420074,224.617232 69.6889705,224.911721 69.6889705,225.120851 L69.6889705,371.342118 C69.6889705,376.621581 71.6078447,381.196831 75.4445323,385.049729 C79.2801592,388.904761 83.8222373,390.844547 89.0718273,390.844547 L205.360482,390.844547 L205.360482,273.864119 L282.897213,273.864119 L282.897213,390.848815 L399.184808,390.848815 C404.433337,390.848815 408.98178,388.913296 412.812103,385.049729 C416.64879,381.201098 418.574029,376.622648 418.574029,371.342118 L418.574029,225.120851 C418.574029,224.309939 418.463712,223.697487 418.268537,223.2995 L244.128318,78.8985166 Z" id="Fill-1"></path>
                <path d="M484.887096,190.397821 L418.567665,134.954928 L418.567665,10.6645571 C418.567665,7.82316483 417.659673,5.48645848 415.837326,3.65763899 C414.02983,1.83095347 411.706814,0.917610714 408.875706,0.917610714 L350.730318,0.917610714 C347.902391,0.917610714 345.580437,1.83095347 343.761272,3.65763899 C341.94635,5.48645848 341.03942,7.82423182 341.03942,10.6645571 L341.03942,70.067047 L267.146322,7.92026085 C260.692795,2.63973129 253.01942,0 244.134682,0 C235.251005,0 227.578691,2.63973129 221.118799,7.92026085 L3.36529588,190.397821 C1.34671236,192.019645 0.240363124,194.202705 0.0345800434,196.944867 C-0.170142299,199.684895 0.535248156,202.078152 2.15287289,204.107566 L20.9289879,226.650913 C22.5466126,228.477599 24.6638447,229.594737 27.2891701,230.003394 C29.7129553,230.208255 32.1367406,229.495507 34.5605258,227.871549 L244.128318,52.0936138 L453.698231,227.870482 C455.316916,229.287444 457.433088,229.994858 460.058413,229.994858 L460.968526,229.994858 C463.589608,229.59367 465.702597,228.469063 467.328708,226.646645 L486.106944,204.106499 C487.721387,202.072817 488.428899,199.683828 488.218873,196.940599 C488.012029,194.205906 486.901437,192.022846 484.887096,190.397821" id="Fill-3"></path>
            </g>
        </g>
    </g>
</svg>