<?xml version="1.0" encoding="UTF-8" standalone="no"?>
<svg width="24px" height="24px" viewBox="0 0 24 24" version="1.1" xmlns="http://www.w3.org/2000/svg" xmlns:xlink="http://www.w3.org/1999/xlink">
    <!-- Generator: Sketch 41.2 (35397) - http://www.bohemiancoding.com/sketch -->
    <title>icon-18</title>
    <desc>Created with Sketch.</desc>
    <defs></defs>
    <g id="Page-1" stroke="none" stroke-width="1" fill="none" fill-rule="evenodd">
        <g id="Group" fill="#CCCCCC">
            <g id="dudas">
                <path d="M11.8666667,0.0666666667 C5.4,0.0666666667 0.2,5.33333333 0.2,11.7333333 C0.2,18.2 5.46666667,23.4 11.8666667,23.4 C18.2666667,23.4 23.5333333,18.1333333 23.5333333,11.7333333 C23.5333333,5.26666667 18.3333333,0.0666666667 11.8666667,0.0666666667 Z M11.9333333,19.2666667 L9.66666667,19.2666667 L9.66666667,16.4666667 L11.9333333,16.4666667 L11.9333333,19.2666667 Z M16.2,9.8 C16.0666667,10.1333333 15.9333333,10.4 15.7333333,10.7333333 C15.5333333,11 15.3333333,11.2666667 15.0666667,11.4666667 C14.8,11.6666667 14.5333333,11.8666667 14.2,12.0666667 C13.9333333,12.2 13.6666667,12.4 13.4,12.5333333 C13.1333333,12.6666667 12.8666667,12.8666667 12.6666667,13 C12.4666667,13.1333333 12.2666667,13.4 12.1333333,13.6 C12,13.8666667 11.9333333,14.1333333 11.9333333,14.4666667 L9.73333333,14.4666667 C9.73333333,13.8 9.86666667,13.2 10.0666667,12.6666667 C10.2666667,12.1333333 10.7333333,11.6666667 11.4,11.2666667 C11.6,11.1333333 11.8666667,11 12.1333333,10.8666667 C12.4,10.7333333 12.7333333,10.5333333 13,10.3333333 C13.2666667,10.1333333 13.5333333,9.86666667 13.7333333,9.6 C13.8666667,9.33333333 14,9 14,8.66666667 C14,8.4 13.9333333,8.13333333 13.8666667,7.93333333 C13.7333333,7.73333333 13.6,7.53333333 13.4666667,7.4 C13.2666667,7.26666667 13.0666667,7.13333333 12.8666667,7.06666667 C12.6,7 12.4,6.93333333 12.1333333,6.93333333 C11.8666667,6.93333333 11.6,7 11.3333333,7.06666667 C11.0666667,7.2 10.8666667,7.26666667 10.6666667,7.46666667 C10.4666667,7.6 10.2666667,7.8 10.1333333,8 C10,8.2 9.86666667,8.4 9.73333333,8.53333333 L7.86666667,7.33333333 C8.06666667,6.93333333 8.26666667,6.53333333 8.53333333,6.2 C8.8,5.86666667 9.13333333,5.6 9.53333333,5.4 C9.93333333,5.2 10.3333333,5 10.7333333,4.86666667 C11.1333333,4.73333333 11.6,4.66666667 12.0666667,4.66666667 C12.6,4.66666667 13.0666667,4.73333333 13.6,4.86666667 C14.0666667,5 14.5333333,5.26666667 14.9333333,5.6 C15.3333333,5.93333333 15.6666667,6.33333333 15.9333333,6.86666667 C16.2,7.4 16.3333333,8 16.3333333,8.66666667 C16.3333333,9.13333333 16.2666667,9.46666667 16.2,9.8 Z" id="Shape"></path>
            </g>
        </g>
    </g>
</svg>